HIERARCHY
ROOT Hips
{
	OFFSET 0.000000 103.266502 0.000000
	CHANNELS 6 Xposition Yposition Zposition Xrotation Yrotation Zrotation 
	JOINT Spine
	{
		OFFSET -0.002400 12.777504 0.315300
		CHANNELS 3 Xrotation Yrotation Zrotation
		JOINT Spine1
		{
			OFFSET -0.002067 5.816869 0.032633
			CHANNELS 3 Xrotation Yrotation Zrotation
			JOINT Spine1_split
			{
				OFFSET -0.002067 5.816869 0.032633
				CHANNELS 3 Xrotation Yrotation Zrotation
				JOINT Spine2
				{
					OFFSET -0.002067 5.816869 0.032633
					CHANNELS 3 Xrotation Yrotation Zrotation
					JOINT Neck
					{
						OFFSET -0.003700 21.199493 -0.826900
						CHANNELS 3 Xrotation Yrotation Zrotation
						JOINT Head
						{
							OFFSET 0.000000 20.442200 4.834800
							CHANNELS 3 Xrotation Yrotation Zrotation
							JOINT HeadTop_End
							{
								OFFSET 0.000000 34.668396 4.968400
								CHANNELS 3 Xrotation Yrotation Zrotation
								End Site
								{
									OFFSET 0.000000 0.000000 0.000000
								}
							}
						}
					}
					JOINT LeftShoulder
					{
						OFFSET 3.288150 8.794197 -1.372250
						CHANNELS 3 Xrotation Yrotation Zrotation
						JOINT LeftShoulder_split
						{
							OFFSET 3.288150 8.794197 -1.372250
							CHANNELS 3 Xrotation Yrotation Zrotation
							JOINT LeftArm
							{
								OFFSET 11.953299 -2.279007 -0.146200
								CHANNELS 3 Xrotation Yrotation Zrotation
								JOINT LeftForeArm
								{
									OFFSET 18.448900 0.000000 0.000000
									CHANNELS 3 Xrotation Yrotation Zrotation
									JOINT LeftHand
									{
										OFFSET 29.527798 0.000000 0.000000
										CHANNELS 3 Xrotation Yrotation Zrotation
										JOINT LeftHandThumb1
										{
											OFFSET 10.739754 -2.369614 9.225399
											CHANNELS 3 Xrotation Yrotation Zrotation
											JOINT LeftHandThumb2
											{
												OFFSET 4.926170 -2.844131 2.844125
												CHANNELS 3 Xrotation Yrotation Zrotation
												JOINT LeftHandThumb3
												{
													OFFSET 4.614891 -2.664413 2.664409
													CHANNELS 3 Xrotation Yrotation Zrotation
													JOINT LeftHandThumb4
													{
														OFFSET 4.432465 -2.559082 2.559083
														CHANNELS 3 Xrotation Yrotation Zrotation
														End Site
														{
															OFFSET 0.000000 0.000000 0.000000
														}
													}
												}
											}
										}
										JOINT LeftHandIndex1
										{
											OFFSET 26.467674 0.187653 6.405298
											CHANNELS 3 Xrotation Yrotation Zrotation
											JOINT LeftHandIndex2
											{
												OFFSET 8.792900 0.000000 0.000000
												CHANNELS 3 Xrotation Yrotation Zrotation
												JOINT LeftHandIndex3
												{
													OFFSET 10.075203 0.000000 0.000000
													CHANNELS 3 Xrotation Yrotation Zrotation
													End Site
													{
														OFFSET 0.000000 0.000000 0.000000
													}
												}
											}
										}
										JOINT LeftHandMiddle1
										{
											OFFSET 25.764404 0.000000 0.000000
											CHANNELS 3 Xrotation Yrotation Zrotation
											JOINT LeftHandMiddle2
											{
												OFFSET 9.393974 0.000000 0.000000
												CHANNELS 3 Xrotation Yrotation Zrotation
												JOINT LeftHandMiddle3
												{
													OFFSET 10.771950 0.000000 0.000000
													CHANNELS 3 Xrotation Yrotation Zrotation
													End Site
													{
														OFFSET 0.000000 0.000000 0.000000
													}
												}
											}
										}
										JOINT LeftHandRing1
										{
											OFFSET 24.660927 0.144547 -6.225808
											CHANNELS 3 Xrotation Yrotation Zrotation
											JOINT LeftHandRing2
											{
												OFFSET 9.393799 0.000000 0.000000
												CHANNELS 3 Xrotation Yrotation Zrotation
												JOINT LeftHandRing3
												{
													OFFSET 9.928497 0.000000 0.000000
													CHANNELS 3 Xrotation Yrotation Zrotation
													End Site
													{
														OFFSET 0.000000 0.000000 0.000000
													}
												}
											}
										}
										JOINT LeftHandPinky1
										{
											OFFSET 23.655350 0.125290 -12.815412
											CHANNELS 3 Xrotation Yrotation Zrotation
											JOINT LeftHandPinky2
											{
												OFFSET 8.425102 0.000000 0.000000
												CHANNELS 3 Xrotation Yrotation Zrotation
												JOINT LeftHandPinky3
												{
													OFFSET 8.147003 0.000000 0.000000
													CHANNELS 3 Xrotation Yrotation Zrotation
													End Site
													{
														OFFSET 0.000000 0.000000 0.000000
													}
												}
											}
										}
									}
								}
							}
						}
					}
					JOINT RightShoulder
					{
						OFFSET -3.249400 8.794197 -1.372250
						CHANNELS 3 Xrotation Yrotation Zrotation
						JOINT RightShoulder_split
						{
							OFFSET -3.249400 8.794197 -1.372250
							CHANNELS 3 Xrotation Yrotation Zrotation
							JOINT RightArm
							{
								OFFSET -11.953299 -2.279007 -0.146200
								CHANNELS 3 Xrotation Yrotation Zrotation
								JOINT RightForeArm
								{
									OFFSET -18.448900 0.000000 0.000000
									CHANNELS 3 Xrotation Yrotation Zrotation
									JOINT RightHand
									{
										OFFSET -29.527802 0.000000 0.000000
										CHANNELS 3 Xrotation Yrotation Zrotation
										JOINT RightHandThumb1
										{
											OFFSET -10.739754 -2.369614 9.225399
											CHANNELS 3 Xrotation Yrotation Zrotation
											JOINT RightHandThumb2
											{
												OFFSET -4.926170 -2.844131 2.844125
												CHANNELS 3 Xrotation Yrotation Zrotation
												JOINT RightHandThumb3
												{
													OFFSET -4.614891 -2.664413 2.664409
													CHANNELS 3 Xrotation Yrotation Zrotation
													JOINT RightHandThumb4
													{
														OFFSET -4.432465 -2.559082 2.559083
														CHANNELS 3 Xrotation Yrotation Zrotation
														End Site
														{
															OFFSET 0.000000 0.000000 0.000000
														}
													}
												}
											}
										}
										JOINT RightHandIndex1
										{
											OFFSET -26.467674 0.187653 6.405298
											CHANNELS 3 Xrotation Yrotation Zrotation
											JOINT RightHandIndex2
											{
												OFFSET -8.792900 0.000000 0.000000
												CHANNELS 3 Xrotation Yrotation Zrotation
												JOINT RightHandIndex3
												{
													OFFSET -10.075203 0.000000 0.000000
													CHANNELS 3 Xrotation Yrotation Zrotation
													End Site
													{
														OFFSET 0.000000 0.000000 0.000000
													}
												}
											}
										}
										JOINT RightHandMiddle1
										{
											OFFSET -25.764404 0.000000 0.000000
											CHANNELS 3 Xrotation Yrotation Zrotation
											JOINT RightHandMiddle2
											{
												OFFSET -9.393974 0.000000 0.000000
												CHANNELS 3 Xrotation Yrotation Zrotation
												JOINT RightHandMiddle3
												{
													OFFSET -10.771950 0.000000 0.000000
													CHANNELS 3 Xrotation Yrotation Zrotation
													End Site
													{
														OFFSET 0.000000 0.000000 0.000000
													}
												}
											}
										}
										JOINT RightHandRing1
										{
											OFFSET -24.660927 0.144547 -6.225808
											CHANNELS 3 Xrotation Yrotation Zrotation
											JOINT RightHandRing2
											{
												OFFSET -9.393799 0.000000 0.000000
												CHANNELS 3 Xrotation Yrotation Zrotation
												JOINT RightHandRing3
												{
													OFFSET -9.928497 0.000000 0.000000
													CHANNELS 3 Xrotation Yrotation Zrotation
													End Site
													{
														OFFSET 0.000000 0.000000 0.000000
													}
												}
											}
										}
										JOINT RightHandPinky1
										{
											OFFSET -23.655350 0.125290 -12.815412
											CHANNELS 3 Xrotation Yrotation Zrotation
											JOINT RightHandPinky2
											{
												OFFSET -8.425102 0.000000 0.000000
												CHANNELS 3 Xrotation Yrotation Zrotation
												JOINT RightHandPinky3
												{
													OFFSET -8.147003 0.000000 0.000000
													CHANNELS 3 Xrotation Yrotation Zrotation
													End Site
													{
														OFFSET 0.000000 0.000000 0.000000
													}
												}
											}
										}
									}
								}
							}
						}
					}
				}
			}
		}
	}
	JOINT LeftUpLeg
	{
		OFFSET 11.394100 -6.187798 -0.413800
		CHANNELS 3 Xrotation Yrotation Zrotation
		JOINT LeftLeg
		{
			OFFSET 0.430247 -32.302673 3.732800
			CHANNELS 3 Xrotation Yrotation Zrotation
			JOINT LeftFoot
			{
				OFFSET -0.430247 -48.264931 -6.423300
				CHANNELS 3 Xrotation Yrotation Zrotation
				JOINT LeftToeBase
				{
					OFFSET 4.230900 -16.068199 23.438400
					CHANNELS 3 Xrotation Yrotation Zrotation
					JOINT LeftToe_End
					{
						OFFSET 4.510700 0.695400 19.974600
						CHANNELS 3 Xrotation Yrotation Zrotation
						End Site
						{
							OFFSET 0.000000 0.000000 0.000000
						}
					}
				}
			}
		}
	}
	JOINT RightUpLeg
	{
		OFFSET -11.333700 -6.187798 -0.413800
		CHANNELS 3 Xrotation Yrotation Zrotation
		JOINT RightLeg
		{
			OFFSET -0.430392 -32.302628 3.733000
			CHANNELS 3 Xrotation Yrotation Zrotation
			JOINT RightFoot
			{
				OFFSET 0.430392 -48.264973 -6.423500
				CHANNELS 3 Xrotation Yrotation Zrotation
				JOINT RightToeBase
				{
					OFFSET -4.230900 -16.068199 23.438400
					CHANNELS 3 Xrotation Yrotation Zrotation
					JOINT RightToe_End
					{
						OFFSET -4.510700 0.695400 19.974600
						CHANNELS 3 Xrotation Yrotation Zrotation
						End Site
						{
							OFFSET 0.000000 0.000000 0.000000
						}
					}
				}
			}
		}
	}
}
MOTION
Frames: 5
Frame Time: 0.016667
-0.417850 85.632599 0.299603 11.705718 -49.521699 11.404201 10.978869 2.848631 -2.161160 6.100703 5.566527 -4.284680 0.000000 0.000000 0.000000 -5.786907 6.328135 -3.046183 2.318313 9.363379 -0.265394 -4.146502 23.161925 -3.523235 -0.000001 0.000000 -0.000000 -1.875349 -16.181761 -2.870483 0.000000 0.000000 0.000000 -10.644671 2.164759 -45.510599 -22.862399 -25.786276 -15.871772 2.491043 -2.511854 6.860509 18.457968 -9.513788 13.216598 -1.150201 11.255343 -8.400833 5.706568 8.483126 -0.820712 -0.000001 -0.000000 0.000002 -1.232798 -5.771929 -0.192342 0.133930 -0.197646 -4.602137 0.000001 0.000004 -0.000003 1.884732 4.663371 -4.597420 0.476691 -1.009834 -12.986401 -0.000002 -0.000000 -0.000001 3.024600 7.938959 -14.103476 -0.708003 -0.566219 -18.895729 0.000001 0.000000 0.000000 2.010385 6.305958 -22.386534 -0.815393 -0.210769 -16.746471 0.000005 -0.000000 -0.000002 -5.074618 24.343747 1.482672 0.000000 0.000000 0.000000 6.642364 -34.733742 57.610433 -21.032009 44.833806 19.961685 -0.087204 35.608501 7.474238 55.149526 18.649553 -29.698270 -0.442546 -14.180565 7.313150 21.666987 -29.244483 9.142375 0.000000 0.000000 -0.000001 5.673385 7.585020 36.844158 1.050472 3.824512 68.900237 0.000001 -0.000003 -0.000001 -0.125720 1.886074 45.000790 -1.168981 3.204681 68.417650 0.000000 -0.000000 0.000002 -5.311997 1.216627 58.508787 -0.745221 1.667562 48.011288 0.000001 -0.000002 0.000002 -7.756832 -9.376446 47.264025 -0.526024 1.541573 45.600532 -0.000001 0.000001 0.000001 -68.323427 24.998952 43.261773 44.537949 -19.585091 3.202459 7.537672 0.565775 -11.518727 -0.806751 -6.108570 0.921361 -0.000000 -0.000003 -0.000000 -38.056509 1.958672 -24.202557 52.398630 1.036654 -6.829699 -21.042175 -1.757734 25.309495 0.528340 2.970084 1.471353 -0.000000 0.000002 0.000000 
-0.384941 85.619492 0.446992 11.223748 -51.128662 11.034204 10.996602 2.847874 -2.141891 6.138160 5.594444 -4.285141 0.000000 0.000000 0.000000 -5.748715 6.468374 -2.981398 2.489920 9.336459 -0.252154 -3.932298 23.122427 -3.588220 -0.000000 -0.000000 0.000000 -1.831976 -15.691460 -2.734873 0.000000 0.000000 0.000000 -10.284167 1.988967 -45.432824 -22.867622 -26.152776 -16.049797 2.735575 -2.483706 6.839573 18.499219 -9.524837 13.108588 -1.077101 11.351613 -8.411992 5.800708 8.647358 -0.822991 -0.000002 -0.000002 0.000001 -1.131493 -5.650989 -0.728761 0.094689 -0.195227 -5.161587 -0.000000 -0.000000 0.000000 1.871909 4.626702 -5.322348 0.428613 -1.020156 -13.711990 0.000004 0.000000 -0.000001 2.961958 7.871833 -14.814784 -0.750682 -0.567339 -19.622478 0.000002 -0.000000 -0.000000 1.926222 6.257264 -23.049061 -0.855975 -0.211686 -17.424834 -0.000001 0.000000 0.000001 -5.284792 25.012605 1.987640 0.000000 0.000000 0.000000 5.891129 -33.544155 56.610377 -21.351962 45.089852 20.683966 2.377821 34.175989 4.612023 55.149526 18.649550 -29.698274 -0.442548 -14.180561 7.313150 21.666987 -29.244473 9.142371 0.000000 -0.000000 -0.000001 5.673391 7.585014 36.844151 1.050472 3.824511 68.900237 -0.000002 0.000002 0.000001 -0.125720 1.886074 45.000787 -1.168982 3.204683 68.417650 -0.000003 -0.000000 0.000001 -5.311999 1.216627 58.508787 -0.745223 1.667563 48.011292 0.000003 -0.000000 -0.000001 -7.756833 -9.376448 47.264025 -0.526025 1.541575 45.600535 0.000003 0.000001 -0.000002 -67.158996 24.551907 43.924400 45.155798 -19.621561 3.282933 6.454235 0.909669 -12.264572 -0.638244 -5.854536 0.868296 -0.000000 -0.000001 -0.000000 -38.094513 2.202970 -24.013876 52.359055 1.918920 -6.796897 -20.894693 -1.111339 25.049929 0.489596 2.972096 1.458164 -0.000000 -0.000002 -0.000000 
-0.386219 85.578056 0.620809 10.679172 -52.661964 10.635895 11.047068 2.849681 -2.098353 6.244018 5.671757 -4.285776 0.000000 0.000000 0.000000 -5.640079 6.608171 -2.917742 2.645278 9.260210 -0.213890 -3.676946 23.009492 -3.772379 -0.000000 -0.000000 0.000001 -1.772849 -15.071251 -2.573299 0.000000 0.000000 0.000000 -9.648135 1.877999 -45.209278 -22.751854 -26.556764 -16.251537 3.425984 -2.405849 6.778299 18.614352 -9.555888 12.806399 -0.869293 11.618019 -8.438096 6.062205 9.107770 -0.832073 -0.000004 0.000001 -0.000001 -0.835812 -5.325767 -2.231415 -0.013374 -0.184471 -6.726220 0.000000 0.000002 -0.000002 1.834807 4.529831 -7.349821 0.295693 -1.043521 -15.741542 0.000001 0.000002 0.000000 2.782684 7.699095 -16.805740 -0.868369 -0.565350 -21.655169 -0.000005 -0.000002 -0.000001 1.688311 6.136092 -24.903449 -0.967994 -0.209433 -19.322200 0.000002 0.000001 0.000000 -5.414778 24.900585 2.343740 0.000000 0.000000 0.000000 4.830019 -31.450453 55.681642 -21.606718 44.967408 21.111013 4.968141 32.756003 1.699185 55.149526 18.649548 -29.698274 -0.442546 -14.180555 7.313149 21.666986 -29.244476 9.142371 -0.000000 0.000000 -0.000001 5.673392 7.585014 36.844151 1.050473 3.824516 68.900230 -0.000003 -0.000001 -0.000001 -0.125721 1.886074 45.000790 -1.168982 3.204680 68.417650 -0.000004 -0.000001 -0.000000 -5.312001 1.216628 58.508787 -0.745222 1.667562 48.011285 0.000000 -0.000000 -0.000000 -7.756833 -9.376446 47.264021 -0.526023 1.541568 45.600532 0.000003 -0.000001 -0.000002 -66.089587 23.508668 43.901611 46.978581 -18.812195 3.544106 5.040192 1.913337 -11.701812 -0.637866 -5.189293 -0.062677 -0.000000 0.000000 -0.000000 -37.900696 2.795467 -23.588757 52.353622 2.453965 -6.866189 -20.822043 -0.754754 24.973519 0.378337 2.978185 1.420359 -0.000000 -0.000002 0.000000 
-0.406621 85.494461 0.836332 10.078882 -54.147913 10.191033 11.125306 2.860283 -2.021259 6.408564 5.788712 -4.285503 0.000000 0.000000 0.000000 -5.470566 6.747026 -2.854224 2.788234 9.140420 -0.154530 -3.388277 22.831779 -4.057902 0.000002 0.000000 -0.000000 -1.680934 -14.154098 -2.352878 0.000000 0.000000 0.000000 -8.774222 1.650378 -44.932102 -22.530371 -26.999733 -16.467796 4.497329 -2.288671 6.678768 18.789972 -9.604247 12.342663 -0.550080 12.026278 -8.480245 6.464167 9.813384 -0.850639 0.000001 -0.000000 0.000003 -0.348432 -4.866018 -4.542077 -0.174141 -0.156904 -9.125348 0.000001 0.000002 -0.000000 1.775579 4.397493 -10.459157 0.097251 -1.063968 -18.853829 0.000006 -0.000001 -0.000001 2.498695 7.477364 -19.862559 -1.042447 -0.547701 -24.771935 0.000001 -0.000000 -0.000001 1.318462 5.993291 -27.751380 -1.134452 -0.192161 -22.231458 -0.000004 -0.000000 0.000001 -5.461415 25.266480 2.495340 0.000000 0.000000 0.000000 3.915313 -29.781541 55.120002 -21.873957 44.541993 21.371834 7.589045 31.575678 -1.256860 55.149526 18.649550 -29.698274 -0.442549 -14.180568 7.313150 21.666987 -29.244479 9.142371 -0.000000 -0.000001 -0.000000 5.673393 7.585013 36.844154 1.050472 3.824509 68.900237 0.000001 -0.000000 -0.000001 -0.125720 1.886075 45.000790 -1.168981 3.204681 68.417650 0.000001 0.000001 -0.000003 -5.311997 1.216626 58.508787 -0.745222 1.667562 48.011288 -0.000004 -0.000001 -0.000002 -7.756828 -9.376451 47.264018 -0.526024 1.541574 45.600532 0.000001 0.000002 -0.000002 -65.146112 21.933629 43.288031 49.587211 -17.181737 3.946605 3.625289 3.214704 -10.496420 -0.127143 -4.220730 -0.546836 0.000000 -0.000003 0.000000 -37.530274 3.694060 -22.972045 52.393999 2.708909 -7.017443 -20.827472 -0.642575 25.065418 0.202325 2.987526 1.360402 -0.000000 0.000002 0.000000 
-0.435357 85.371346 1.090690 9.427541 -55.609208 9.692791 11.226654 2.877477 -1.913317 6.622071 5.935548 -4.283186 0.000000 0.000000 0.000000 -5.249793 6.884303 -2.789885 2.921512 8.983520 -0.077021 -3.073441 22.597537 -4.427862 0.000002 0.000000 -0.000000 -1.627998 -13.599100 -2.198491 0.000000 0.000000 0.000000 -7.656108 1.924358 -44.436210 -22.218809 -27.483372 -16.689637 5.884940 -2.144379 6.542362 19.012597 -9.667192 11.749952 -0.141511 12.547228 -8.537736 6.979170 10.713413 -0.882386 0.000002 -0.000001 0.000000 0.329246 -4.351188 -7.503744 -0.369308 -0.103144 -12.188116 0.000003 0.000000 0.000001 1.698481 4.256732 -14.429784 -0.144853 -1.063911 -22.827539 0.000001 0.000000 -0.000000 2.127035 7.270688 -23.772280 -1.251848 -0.500829 -28.751319 0.000000 0.000001 0.000002 0.843463 5.887051 -31.394766 -1.336042 -0.146895 -25.945995 0.000002 0.000001 0.000001 -5.521599 25.685608 2.682261 0.000000 0.000000 0.000000 3.144984 -28.050416 54.521196 -22.183249 44.067916 21.624418 10.077625 30.371416 -4.358342 55.149526 18.649551 -29.698267 -0.442549 -14.180568 7.313148 21.666987 -29.244473 9.142372 0.000000 0.000001 -0.000000 5.673390 7.585016 36.844161 1.050472 3.824514 68.900237 0.000002 -0.000000 -0.000001 -0.125715 1.886073 45.000794 -1.168981 3.204681 68.417650 0.000000 0.000001 -0.000000 -5.311995 1.216626 58.508787 -0.745223 1.667560 48.011288 -0.000001 -0.000001 -0.000000 -7.756829 -9.376450 47.264021 -0.526023 1.541573 45.600535 0.000001 -0.000001 -0.000002 -64.421572 20.036222 42.884610 52.592170 -15.754796 4.364595 2.125372 4.465477 -11.741108 1.410667 -3.434466 0.222843 0.000000 0.000000 -0.000000 -37.035646 4.850107 -22.205316 52.472030 2.742340 -7.231447 -20.894906 -0.721626 25.298573 -0.030956 3.000266 1.281109 -0.000000 -0.000001 0.000000 
